<svg width="20" height="20" viewBox="0 0 20 20" fill="none" xmlns="http://www.w3.org/2000/svg">
<g clip-path="url(#clip0_140_20041)">
<path d="M10 0C8.02219 0 6.08879 0.58649 4.4443 1.6853C2.79981 2.78412 1.51809 4.3459 0.761209 6.17317C0.00433296 8.00043 -0.193701 10.0111 0.192152 11.9509C0.578004 13.8907 1.53041 15.6725 2.92894 17.0711C4.32746 18.4696 6.10929 19.422 8.0491 19.8079C9.98891 20.1937 11.9996 19.9957 13.8268 19.2388C15.6541 18.4819 17.2159 17.2002 18.3147 15.5557C19.4135 13.9112 20 11.9778 20 10C20 8.68678 19.7413 7.38642 19.2388 6.17317C18.7363 4.95991 17.9997 3.85752 17.0711 2.92893C16.1425 2.00035 15.0401 1.26375 13.8268 0.761205C12.6136 0.258658 11.3132 0 10 0ZM14.15 10.75H5.85C5.67211 10.7209 5.51037 10.6294 5.39367 10.492C5.27696 10.3547 5.21289 10.1803 5.21289 10C5.21289 9.81974 5.27696 9.64534 5.39367 9.50796C5.51037 9.37057 5.67211 9.27915 5.85 9.25H14.15C14.3279 9.27915 14.4896 9.37057 14.6063 9.50796C14.723 9.64534 14.7871 9.81974 14.7871 10C14.7871 10.1803 14.723 10.3547 14.6063 10.492C14.4896 10.6294 14.3279 10.7209 14.15 10.75Z" fill="#BDBDBD"/>
</g>
<defs>
<clipPath id="clip0_140_20041">
<rect width="20" height="20" fill="white"/>
</clipPath>
</defs>
</svg>
