<svg width="95" height="106" viewBox="0 0 95 106" fill="none" xmlns="http://www.w3.org/2000/svg">
<g clip-path="url(#clip0_1179_809)">
<path d="M90.0007 84.5615L47.5 106L4.99927 84.5615V0H90.0007V84.5615Z" fill="#F8F8F8"/>
<path d="M4.99927 0V84.5615L90.0007 0H4.99927Z" fill="white"/>
<path d="M89.1922 0.795V84.0845L47.5 105.112L5.80778 84.0845V0.795H89.1922ZM90.0007 0H4.99927V84.5615L47.5 106L90.0007 84.5615V0Z" fill="#DCDFDD"/>
<path d="M57.2964 15.1182L47.4191 20.7627L37.7035 15.1182V0H57.2964V15.1182Z" fill="#FF3100"/>
<path d="M52.2163 7.48626H50.3702C50.4241 7.19476 50.5993 7.04901 50.9631 6.86351L51.3 6.69126C51.9064 6.38651 52.2298 6.04201 52.2298 5.47226C52.2298 5.11451 52.095 4.83626 51.812 4.63751C51.5425 4.43876 51.2056 4.33276 50.8149 4.33276C50.5049 4.33276 50.2354 4.41226 49.9794 4.57126C49.7234 4.73026 49.5347 4.91576 49.4269 5.16751L49.9659 5.69751C50.1681 5.28676 50.478 5.08801 50.8688 5.08801C51.2056 5.08801 51.4078 5.26026 51.4078 5.48551C51.4078 5.68426 51.3134 5.84326 50.9227 6.04201L50.7071 6.14801C50.2354 6.38651 49.8985 6.65151 49.7099 6.95626C49.5212 7.26101 49.4269 7.64526 49.4269 8.10901V8.24151H52.2163V7.48626ZM51.9737 9.08951H48.9283L47.4056 11.6865H50.451L51.9737 14.2835L53.4964 11.6865L51.9737 9.08951Z" fill="white"/>
<path d="M47.6617 13.4223C45.7213 13.4223 44.1447 11.872 44.1447 9.96401C44.1447 8.05601 45.7213 6.49251 47.6617 6.49251L48.8745 4.01476C48.4837 3.93526 48.0794 3.89551 47.6617 3.89551C44.266 3.89551 41.5035 6.61176 41.5035 9.95076C41.5035 13.2898 44.266 16.006 47.6617 16.006C49.0227 16.006 50.2759 15.5688 51.2865 14.84L49.9525 12.5875C49.3326 13.1043 48.5376 13.4223 47.6617 13.4223Z" fill="white"/>
<path d="M91.9007 66.4621H3.01844L0 59.0421L3.01844 51.6221H91.9007L94.9191 59.0421L91.9007 66.4621Z" fill="#FF3100"/>
<path d="M31.0063 31.9854C31.0468 32.0252 31.0737 32.0782 31.0737 32.1312V33.8802C31.0737 33.9332 31.0468 33.9862 31.0063 34.0259C30.9659 34.0657 30.912 34.0922 30.8581 34.0922H27.6106C27.5567 34.0922 27.5163 34.1187 27.5163 34.1849V44.1754C27.5163 44.2417 27.4893 44.2814 27.4489 44.3212C27.4085 44.3609 27.3546 44.3874 27.3007 44.3874H25.1851C25.1312 44.3874 25.0773 44.3609 25.0368 44.3212C24.9964 44.2814 24.9695 44.2284 24.9695 44.1754V34.1849C24.9695 34.1319 24.9425 34.0922 24.8751 34.0922H21.7219C21.668 34.0922 21.6141 34.0657 21.5737 34.0259C21.5333 33.9862 21.5063 33.9332 21.5063 33.8802V32.1312C21.5063 32.0782 21.5333 32.0252 21.5737 31.9854C21.6141 31.9457 21.668 31.9192 21.7219 31.9192H30.8581C30.912 31.9192 30.9659 31.9457 31.0063 31.9854Z" fill="#252530"/>
<path d="M32.5291 43.7514C31.8014 43.2347 31.3028 42.5192 31.0468 41.6182C30.8716 41.0617 30.7908 40.4522 30.7908 39.8029C30.7908 39.1007 30.8716 38.4779 31.0468 37.9214C31.3298 37.0469 31.8284 36.3579 32.556 35.8544C33.2837 35.3509 34.1461 35.1124 35.1702 35.1124C36.1539 35.1124 37.0028 35.3642 37.7035 35.8544C38.4042 36.3447 38.9028 37.0337 39.1858 37.9082C39.3745 38.5044 39.4823 39.1272 39.4823 39.7764C39.4823 40.4124 39.4014 41.0219 39.2262 41.5784C38.9567 42.5059 38.4716 43.2347 37.744 43.7647C37.0298 44.2947 36.1539 44.5597 35.1433 44.5597C34.1326 44.5597 33.2433 44.2682 32.5291 43.7514ZM36.1404 42.0157C36.4234 41.7772 36.612 41.4459 36.7333 41.0352C36.8277 40.6509 36.8816 40.2402 36.8816 39.7897C36.8816 39.2862 36.8277 38.8754 36.7333 38.5309C36.5986 38.1334 36.3964 37.8154 36.1135 37.5902C35.8305 37.3649 35.4936 37.2457 35.1028 37.2457C34.6986 37.2457 34.3482 37.3649 34.0787 37.5902C33.8092 37.8154 33.6071 38.1334 33.4858 38.5309C33.3915 38.8224 33.3376 39.2332 33.3376 39.7897C33.3376 40.3197 33.378 40.7437 33.4589 41.0352C33.5801 41.4459 33.7823 41.7772 34.0652 42.0157C34.3482 42.2542 34.6986 42.3734 35.1028 42.3734C35.534 42.3734 35.8709 42.2542 36.1404 42.0157ZM49.7503 39.8294C49.7503 40.6509 49.6291 41.3929 49.4 42.0554C49.117 42.8107 48.6858 43.4202 48.0929 43.8574C47.5 44.2947 46.7589 44.5199 45.8695 44.5199C44.9936 44.5199 44.3198 44.2284 43.8347 43.6322C43.8078 43.5924 43.7808 43.5792 43.7674 43.5924C43.7404 43.6057 43.7269 43.6322 43.7269 43.6587V47.4747C43.7269 47.5277 43.7 47.5807 43.6596 47.6204C43.6191 47.6602 43.5652 47.6867 43.5113 47.6867H41.3957C41.3418 47.6867 41.2879 47.6602 41.2475 47.6204C41.2071 47.5807 41.1801 47.5277 41.1801 47.4747V35.4304C41.1801 35.3774 41.2071 35.3244 41.2475 35.2847C41.2879 35.2449 41.3418 35.2184 41.3957 35.2184H43.5113C43.5652 35.2184 43.6191 35.2449 43.6596 35.2847C43.7 35.3244 43.7269 35.3774 43.7269 35.4304V36.0134C43.7269 36.0532 43.7404 36.0664 43.7674 36.0797C43.7943 36.0797 43.8213 36.0797 43.8347 36.0532C44.3468 35.4039 45.0475 35.0727 45.9369 35.0727C46.7723 35.0727 47.4865 35.2979 48.1064 35.7617C48.7128 36.2254 49.1574 36.8614 49.4135 37.6697C49.6425 38.2924 49.7503 39.0079 49.7503 39.8294ZM47.0957 39.7897C47.0957 39.0477 46.9745 38.4514 46.7184 38.0142C46.4355 37.4974 45.9908 37.2457 45.3844 37.2457C44.8319 37.2457 44.4142 37.4974 44.1312 38.0142C43.8752 38.4382 43.7539 39.0477 43.7539 39.8162C43.7539 40.6112 43.8886 41.2339 44.1581 41.6712C44.4411 42.1482 44.8454 42.3867 45.3844 42.3867C45.9234 42.3867 46.3546 42.1614 46.6511 41.6977C46.9475 41.2207 47.0957 40.5847 47.0957 39.7897ZM63.239 40.3992C63.239 41.0087 63.1447 41.5519 62.9425 42.0422C62.6596 42.7974 62.1745 43.4069 61.4738 43.8442C60.773 44.2947 59.9511 44.5067 59.0078 44.5067C58.0915 44.5067 57.283 44.2947 56.5957 43.8574C55.895 43.4202 55.4099 42.8372 55.1135 42.0819C54.9922 41.7772 54.8979 41.4459 54.844 41.1014V41.0749C54.844 40.9424 54.9113 40.8762 55.0596 40.8762H57.256C57.3773 40.8762 57.4581 40.9424 57.4851 41.0749C57.4986 41.1412 57.512 41.2074 57.539 41.2472C57.5659 41.3002 57.5794 41.3399 57.5929 41.3664C57.7142 41.6712 57.8894 41.9097 58.1319 42.0819C58.3745 42.2542 58.6574 42.3337 58.9808 42.3337C59.3177 42.3337 59.6142 42.2409 59.8702 42.0687C60.1262 41.8964 60.3149 41.6447 60.4362 41.3267C60.5574 41.0882 60.6113 40.7834 60.6113 40.3992C60.6113 40.0547 60.5574 39.7499 60.4496 39.4717C60.3688 39.1669 60.1936 38.9284 59.9376 38.7562C59.6815 38.5839 59.3851 38.5044 59.0482 38.5044C58.7113 38.5044 58.4014 38.5839 58.105 38.7297C57.8085 38.8887 57.6198 39.0874 57.5255 39.3392C57.4851 39.4584 57.4042 39.5114 57.2964 39.5114H55.073C55.0191 39.5114 54.9652 39.4849 54.9248 39.4452C54.8844 39.4054 54.8574 39.3524 54.8574 39.2994V32.1179C54.8574 32.0649 54.8844 32.0119 54.9248 31.9722C54.9652 31.9324 55.0191 31.9059 55.073 31.9059H62.5518C62.6057 31.9059 62.6596 31.9324 62.7 31.9722C62.7404 32.0119 62.7674 32.0649 62.7674 32.1179V33.8404C62.7674 33.8934 62.7404 33.9464 62.7 33.9862C62.6596 34.0259 62.6057 34.0524 62.5518 34.0524H57.4986C57.4312 34.0524 57.4042 34.0789 57.4042 34.1452L57.3908 36.7819C57.3908 36.8614 57.4312 36.8879 57.4986 36.8349C58.0376 36.4904 58.6709 36.3182 59.3851 36.3182C60.234 36.3182 60.9752 36.5302 61.6085 36.9542C62.2418 37.3782 62.6865 37.9479 62.956 38.6899C63.1447 39.2862 63.239 39.8559 63.239 40.3992ZM65.8262 43.4864C65.0581 42.7577 64.6674 41.7639 64.6674 40.5052V35.8014C64.6674 34.5692 65.0581 33.5887 65.8262 32.8599C66.5943 32.1312 67.6454 31.7734 68.9794 31.7734C70.3135 31.7734 71.3645 32.1312 72.1461 32.8599C72.9277 33.5887 73.3184 34.5692 73.3184 35.8014V40.5052C73.3184 41.7639 72.9277 42.7577 72.1461 43.4864C71.3645 44.2152 70.3135 44.5862 68.9794 44.5862C67.6454 44.5862 66.5943 44.2152 65.8262 43.4864ZM70.273 41.9362C70.5964 41.6049 70.7581 41.1677 70.7581 40.6244V35.7219C70.7581 35.1787 70.5964 34.7414 70.273 34.4102C69.9496 34.0789 69.5184 33.9199 68.9794 33.9199C68.4539 33.9199 68.0227 34.0789 67.6993 34.4102C67.3759 34.7414 67.2142 35.1787 67.2142 35.7219V40.6244C67.2142 41.1677 67.3759 41.6049 67.6993 41.9362C68.0227 42.2674 68.4404 42.4264 68.9794 42.4264C69.5184 42.4264 69.9496 42.2674 70.273 41.9362Z" fill="#252530"/>
<path d="M18.5689 75.1805C18.8923 75.3395 19.054 75.6178 19.054 76.002C19.054 76.3333 18.9462 76.5718 18.7171 76.744C18.488 76.9163 18.1915 76.9958 17.8277 76.9958H16.5071C16.4937 76.9958 16.4802 76.9958 16.4667 76.9825C16.4532 76.9693 16.4532 76.956 16.4532 76.9428V73.5375C16.4532 73.5243 16.4532 73.511 16.4667 73.4978C16.4802 73.4845 16.4937 73.4845 16.5071 73.4845H17.7873C18.5958 73.4845 19.0001 73.8025 19.0001 74.4518C19.0001 74.783 18.8518 75.0215 18.5689 75.1673C18.5554 75.154 18.5554 75.1673 18.5689 75.1805ZM17.1674 74.094V74.8758C17.1674 74.889 17.1809 74.9023 17.1944 74.9023H17.7873C17.949 74.9023 18.0703 74.8625 18.1646 74.7963C18.2589 74.7168 18.2993 74.624 18.2993 74.4915C18.2993 74.359 18.2589 74.253 18.1646 74.1868C18.0703 74.1073 17.949 74.0675 17.7873 74.0675H17.1944C17.1809 74.0675 17.1674 74.0808 17.1674 74.094ZM18.205 76.2538C18.2993 76.1743 18.3398 76.0683 18.3398 75.9225C18.3398 75.79 18.2993 75.6708 18.205 75.6045C18.1107 75.525 17.9894 75.4853 17.8277 75.4853H17.1944C17.1809 75.4853 17.1674 75.4985 17.1674 75.5118V76.3465C17.1674 76.3598 17.1809 76.373 17.1944 76.373H17.8412C17.9894 76.373 18.1107 76.3333 18.205 76.2538ZM22.2476 74.0543C22.2341 74.0675 22.2206 74.0675 22.2071 74.0675H20.5228C20.5093 74.0675 20.4958 74.0808 20.4958 74.094V74.8758C20.4958 74.889 20.5093 74.9023 20.5228 74.9023H21.6277C21.6412 74.9023 21.6547 74.9023 21.6681 74.9155C21.6816 74.9288 21.6816 74.942 21.6816 74.9553V75.4455C21.6816 75.4588 21.6816 75.472 21.6681 75.4853C21.6547 75.4985 21.6412 75.4985 21.6277 75.4985H20.5228C20.5093 75.4985 20.4958 75.5118 20.4958 75.525V76.3465C20.4958 76.3598 20.5093 76.373 20.5228 76.373H22.2071C22.2206 76.373 22.2341 76.373 22.2476 76.3863C22.261 76.3995 22.261 76.4128 22.261 76.426V76.9163C22.261 76.9295 22.261 76.9428 22.2476 76.956C22.2341 76.9693 22.2206 76.9693 22.2071 76.9693H19.8355C19.822 76.9693 19.8086 76.9693 19.7951 76.956C19.7816 76.9428 19.7816 76.9295 19.7816 76.9163V73.511C19.7816 73.4978 19.7816 73.4845 19.7951 73.4713C19.8086 73.458 19.822 73.458 19.8355 73.458H22.2071C22.2206 73.458 22.2341 73.458 22.2476 73.4713C22.261 73.4845 22.261 73.4978 22.261 73.511V74.0013C22.261 74.0278 22.261 74.041 22.2476 74.0543Z" fill="#252530"/>
<path d="M23.4064 76.9029C23.2043 76.8234 23.0426 76.6909 22.9348 76.5319C22.827 76.3729 22.7731 76.1874 22.7731 75.9754V75.8694C22.7731 75.8561 22.7731 75.8429 22.7865 75.8296C22.8 75.8164 22.8135 75.8164 22.827 75.8164H23.4064C23.4199 75.8164 23.4334 75.8164 23.4468 75.8296C23.4603 75.8429 23.4603 75.8561 23.4603 75.8694V75.9489C23.4603 76.0814 23.5277 76.2006 23.649 76.2934C23.7702 76.3861 23.9454 76.4259 24.161 76.4259C24.3362 76.4259 24.4709 76.3861 24.5653 76.3066C24.6596 76.2271 24.7 76.1344 24.7 76.0284C24.7 75.9489 24.6731 75.8826 24.6192 75.8296C24.5653 75.7766 24.4844 75.7236 24.3901 75.6839C24.2958 75.6441 24.1475 75.5779 23.9454 75.5116C23.7163 75.4321 23.5277 75.3526 23.366 75.2731C23.2043 75.1936 23.0695 75.0876 22.9617 74.9419C22.8539 74.7961 22.8 74.6371 22.8 74.4251C22.8 74.2264 22.8539 74.0409 22.9617 73.8951C23.0695 73.7494 23.2178 73.6301 23.4064 73.5506C23.5951 73.4711 23.8107 73.4314 24.0532 73.4314C24.3092 73.4314 24.5383 73.4711 24.7404 73.5639C24.9426 73.6566 25.1043 73.7759 25.2121 73.9481C25.3199 74.1071 25.3873 74.3059 25.3873 74.5179V74.5974C25.3873 74.6106 25.3873 74.6239 25.3738 74.6371C25.3603 74.6504 25.3468 74.6504 25.3334 74.6504H24.7404C24.727 74.6504 24.7135 74.6504 24.7 74.6371C24.6865 74.6239 24.6865 74.6106 24.6865 74.5974V74.5576C24.6865 74.4119 24.6326 74.2926 24.5114 74.1999C24.3901 74.1071 24.2284 74.0541 24.0263 74.0541C23.8646 74.0541 23.7433 74.0939 23.649 74.1601C23.5546 74.2264 23.5142 74.3191 23.5142 74.4384C23.5142 74.5179 23.5412 74.5974 23.5951 74.6504C23.649 74.7034 23.7298 74.7564 23.8241 74.8094C23.9319 74.8491 24.0936 74.9154 24.3092 74.9949C24.5518 75.0876 24.7404 75.1539 24.8752 75.2201C25.01 75.2864 25.1447 75.3924 25.2525 75.5249C25.3603 75.6574 25.4142 75.8296 25.4142 76.0416C25.4142 76.3596 25.2929 76.6114 25.0639 76.7836C24.8348 76.9559 24.5114 77.0619 24.1071 77.0619C23.8511 77.0221 23.6085 76.9824 23.4064 76.9029Z" fill="#252530"/>
<path d="M28.5944 73.4845C28.6078 73.4977 28.6078 73.511 28.6078 73.5242V74.0145C28.6078 74.0277 28.6078 74.041 28.5944 74.0542C28.5809 74.0675 28.5674 74.0675 28.5539 74.0675H27.6376C27.6241 74.0675 27.6107 74.0807 27.6107 74.094V76.9162C27.6107 76.9295 27.6107 76.9427 27.5972 76.956C27.5837 76.9692 27.5702 76.9692 27.5568 76.9692H26.9504C26.9369 76.9692 26.9234 76.9692 26.91 76.956C26.8965 76.9427 26.8965 76.9295 26.8965 76.9162V74.094C26.8965 74.0807 26.883 74.0675 26.8695 74.0675H25.9802C25.9667 74.0675 25.9532 74.0675 25.9397 74.0542C25.9263 74.041 25.9263 74.0277 25.9263 74.0145V73.5242C25.9263 73.511 25.9263 73.4977 25.9397 73.4845C25.9532 73.4712 25.9667 73.4712 25.9802 73.4712H28.5674C28.5674 73.458 28.5809 73.4712 28.5944 73.4845ZM30.9256 76.903C30.7234 76.8235 30.5617 76.691 30.4539 76.532C30.3461 76.373 30.2922 76.1875 30.2922 75.9755V75.8695C30.2922 75.8562 30.2922 75.843 30.3057 75.8297C30.3192 75.8165 30.3327 75.8165 30.3461 75.8165H30.9256C30.939 75.8165 30.9525 75.8165 30.966 75.8297C30.9795 75.843 30.9795 75.8562 30.9795 75.8695V75.949C30.9795 76.0815 31.0468 76.2007 31.1681 76.2935C31.2894 76.3862 31.4646 76.426 31.6802 76.426C31.8553 76.426 31.9901 76.3862 32.0844 76.3067C32.1788 76.2272 32.2192 76.1345 32.2192 76.0285C32.2192 75.949 32.1922 75.8827 32.1383 75.8297C32.0844 75.7767 32.0036 75.7237 31.9092 75.684C31.8149 75.6442 31.6667 75.578 31.4646 75.5117C31.2355 75.4322 31.0468 75.3527 30.8851 75.2732C30.7234 75.1937 30.5887 75.0877 30.4809 74.942C30.3731 74.7962 30.3192 74.6372 30.3192 74.4252C30.3192 74.2265 30.3731 74.041 30.4809 73.8952C30.5887 73.7495 30.7369 73.6302 30.9256 73.5507C31.1142 73.4712 31.3298 73.4315 31.5724 73.4315C31.8284 73.4315 32.0575 73.4712 32.2596 73.564C32.4617 73.6567 32.6234 73.776 32.7312 73.9482C32.839 74.1072 32.9064 74.306 32.9064 74.518V74.5975C32.9064 74.6107 32.9064 74.624 32.8929 74.6372C32.8795 74.6505 32.866 74.6505 32.8525 74.6505H32.2596C32.2461 74.6505 32.2327 74.6505 32.2192 74.6372C32.2057 74.624 32.2057 74.6107 32.2057 74.5975V74.5577C32.2057 74.412 32.1518 74.2927 32.0305 74.2C31.9092 74.1072 31.7475 74.0542 31.5454 74.0542C31.3837 74.0542 31.2624 74.094 31.1681 74.1602C31.0738 74.2265 31.0334 74.3192 31.0334 74.4385C31.0334 74.518 31.0603 74.5975 31.1142 74.6505C31.1681 74.7035 31.249 74.7565 31.3433 74.8095C31.4511 74.8492 31.6128 74.9155 31.8284 74.995C32.071 75.0877 32.2596 75.154 32.3944 75.2202C32.5291 75.2865 32.6639 75.3925 32.7717 75.525C32.8795 75.6575 32.9334 75.8297 32.9334 76.0417C32.9334 76.3597 32.8121 76.6115 32.583 76.7837C32.3539 76.956 32.0305 77.062 31.6263 77.062C31.3702 77.0222 31.1277 76.9825 30.9256 76.903ZM34.1731 76.8765C33.971 76.7705 33.8093 76.6247 33.7014 76.426C33.5936 76.2272 33.5263 76.0152 33.5263 75.7635V74.6902C33.5263 74.4385 33.5802 74.2265 33.7014 74.0277C33.8227 73.829 33.971 73.6832 34.1731 73.5772C34.3752 73.4712 34.6043 73.4182 34.8738 73.4182C35.1433 73.4182 35.3858 73.4712 35.588 73.5772C35.7901 73.6832 35.9518 73.829 36.0596 74.0277C36.1674 74.2265 36.2348 74.4385 36.2348 74.6902V75.7635C36.2348 76.0152 36.1809 76.2405 36.0596 76.4392C35.9383 76.638 35.7901 76.7837 35.588 76.8897C35.3858 76.9957 35.1433 77.0487 34.8738 77.0487C34.6178 77.0355 34.3887 76.9825 34.1731 76.8765ZM35.3454 76.2537C35.4667 76.1345 35.5206 75.9755 35.5206 75.79V74.677C35.5206 74.4782 35.4667 74.3192 35.3454 74.2C35.2376 74.0807 35.0759 74.0277 34.8873 74.0277C34.6986 74.0277 34.5504 74.0807 34.4291 74.2C34.3213 74.3192 34.2539 74.4782 34.2539 74.677V75.79C34.2539 75.9887 34.3078 76.1345 34.4291 76.2537C34.5369 76.373 34.6986 76.426 34.8873 76.426C35.0759 76.426 35.2241 76.373 35.3454 76.2537ZM39.4014 74.0542C39.388 74.0675 39.3745 74.0675 39.361 74.0675H37.6901C37.6766 74.0675 37.6632 74.0807 37.6632 74.094V74.8757C37.6632 74.889 37.6766 74.9022 37.6901 74.9022H38.7951C38.8085 74.9022 38.822 74.9022 38.8355 74.9155C38.849 74.9287 38.849 74.942 38.849 74.9552V75.4455C38.849 75.4587 38.849 75.472 38.8355 75.4852C38.822 75.4985 38.8085 75.4985 38.7951 75.4985H37.6901C37.6766 75.4985 37.6632 75.5117 37.6632 75.525V76.9162C37.6632 76.9295 37.6631 76.9427 37.6497 76.956C37.6362 76.9692 37.6227 76.9692 37.6093 76.9692H37.0163C37.0029 76.9692 36.9894 76.9692 36.9759 76.956C36.9624 76.9427 36.9624 76.9295 36.9624 76.9162V73.511C36.9624 73.4977 36.9624 73.4845 36.9759 73.4712C36.9894 73.458 37.0029 73.458 37.0163 73.458H39.3745C39.388 73.458 39.4014 73.458 39.4149 73.4712C39.4284 73.4845 39.4284 73.4977 39.4284 73.511V74.0012C39.4284 74.0277 39.4149 74.041 39.4014 74.0542ZM42.4738 73.4845C42.4873 73.4977 42.4873 73.511 42.4873 73.5242V74.0145C42.4873 74.0277 42.4873 74.041 42.4738 74.0542C42.4603 74.0675 42.4468 74.0675 42.4334 74.0675H41.5171C41.5036 74.0675 41.4901 74.0807 41.4901 74.094V76.9162C41.4901 76.9295 41.4901 76.9427 41.4766 76.956C41.4631 76.9692 41.4497 76.9692 41.4362 76.9692H40.8298C40.8163 76.9692 40.8029 76.9692 40.7894 76.956C40.7759 76.9427 40.7759 76.9295 40.7759 76.9162V74.094C40.7759 74.0807 40.7624 74.0675 40.749 74.0675H39.8596C39.8461 74.0675 39.8327 74.0675 39.8192 74.0542C39.8057 74.041 39.8057 74.0277 39.8057 74.0145V73.5242C39.8057 73.511 39.8057 73.4977 39.8192 73.4845C39.8327 73.4712 39.8461 73.4712 39.8596 73.4712H42.4468C42.4468 73.458 42.4738 73.4712 42.4738 73.4845Z" fill="#252530"/>
<path d="M43.9291 76.9295L43.0262 73.5243V73.4978C43.0262 73.4713 43.0397 73.458 43.0801 73.458H43.7135C43.7539 73.458 43.7674 73.4713 43.7809 73.511L44.266 75.5648C44.266 75.578 44.2794 75.5913 44.2794 75.5913C44.2794 75.5913 44.2929 75.578 44.2929 75.5648L44.7645 73.5243C44.778 73.4845 44.7915 73.4713 44.8319 73.4713H45.4518C45.4922 73.4713 45.5192 73.4845 45.5192 73.5243L46.0312 75.578C46.0312 75.5913 46.0447 75.5913 46.0447 75.5913C46.0582 75.5913 46.0582 75.5913 46.0582 75.578L46.5298 73.5375C46.5433 73.4978 46.5567 73.4845 46.5972 73.4845H47.2036C47.2575 73.4845 47.2709 73.511 47.2575 73.5508L46.422 76.956C46.4085 76.9958 46.3816 77.009 46.3546 77.009H45.7482C45.7078 77.009 45.6943 76.9958 45.6809 76.956L45.1553 74.7698C45.1553 74.7565 45.1418 74.7433 45.1418 74.7433C45.1284 74.7433 45.1284 74.7565 45.1284 74.7698L44.6433 76.9428C44.6298 76.9825 44.6163 76.9958 44.5759 76.9958H44.0099C43.9695 76.9825 43.9426 76.9693 43.9291 76.9295Z" fill="#252530"/>
<path d="M49.4674 76.9295L49.3192 76.4393C49.3057 76.426 49.3057 76.4128 49.2922 76.4128H48.039C48.0255 76.4128 48.0255 76.426 48.0121 76.4393L47.8638 76.9295C47.8504 76.9693 47.8369 76.9825 47.7965 76.9825H47.1497C47.1227 76.9825 47.1092 76.9825 47.1092 76.9693C47.0958 76.956 47.0958 76.9428 47.1092 76.9163L48.2142 73.511C48.2277 73.4713 48.2411 73.458 48.2816 73.458H49.0901C49.1305 73.458 49.144 73.4713 49.1575 73.511L50.2624 76.9163V76.9428C50.2624 76.9693 50.2489 76.9825 50.2085 76.9825H49.5617C49.4943 76.9825 49.4809 76.9693 49.4674 76.9295ZM48.2007 75.8695H49.1036C49.1305 75.8695 49.1305 75.8563 49.1305 75.843L48.6723 74.3458C48.6723 74.3325 48.6589 74.3325 48.6589 74.3325C48.6454 74.3325 48.6454 74.3458 48.6454 74.3458L48.2007 75.843C48.1872 75.8563 48.1872 75.8695 48.2007 75.8695ZM52.7418 76.9428L52.095 75.5515C52.0816 75.5383 52.0816 75.525 52.0681 75.525H51.5965C51.583 75.525 51.5695 75.5383 51.5695 75.5515V76.9295C51.5695 76.9428 51.5695 76.956 51.556 76.9693C51.5426 76.9825 51.5291 76.9825 51.5156 76.9825H50.9227C50.9092 76.9825 50.8958 76.9825 50.8823 76.9693C50.8688 76.956 50.8688 76.9428 50.8688 76.9295V73.5243C50.8688 73.511 50.8688 73.4978 50.8823 73.4845C50.8958 73.4713 50.9092 73.4713 50.9227 73.4713H52.3915C52.6071 73.4713 52.7958 73.511 52.9709 73.6038C53.1461 73.6965 53.2674 73.8158 53.3617 73.9748C53.456 74.1338 53.4965 74.3193 53.4965 74.5313C53.4965 74.7565 53.4426 74.9553 53.3213 75.1143C53.2 75.2733 53.0383 75.3925 52.8362 75.4588C52.8227 75.472 52.8092 75.472 52.8227 75.4985L53.5234 76.9295C53.5369 76.9428 53.5369 76.956 53.5369 76.956C53.5369 76.9825 53.5234 76.9958 53.483 76.9958H52.8497C52.7688 76.9825 52.7553 76.9693 52.7418 76.9428ZM51.5695 74.094V74.9553C51.5695 74.9685 51.583 74.9818 51.5965 74.9818H52.2702C52.4184 74.9818 52.5262 74.942 52.6206 74.8493C52.7149 74.7698 52.7553 74.6505 52.7553 74.518C52.7553 74.3855 52.7149 74.2795 52.6206 74.1868C52.5262 74.1073 52.4184 74.0543 52.2702 74.0543H51.5965C51.5695 74.0675 51.5695 74.0808 51.5695 74.094ZM56.6092 74.0543C56.5958 74.0675 56.5823 74.0675 56.5688 74.0675H54.8844C54.8709 74.0675 54.8575 74.0808 54.8575 74.094V74.8758C54.8575 74.889 54.8709 74.9023 54.8844 74.9023H55.9894C56.0028 74.9023 56.0163 74.9023 56.0298 74.9155C56.0433 74.9288 56.0433 74.942 56.0433 74.9553V75.4455C56.0433 75.4588 56.0433 75.472 56.0298 75.4853C56.0163 75.4985 56.0028 75.4985 55.9894 75.4985H54.8844C54.8709 75.4985 54.8575 75.5118 54.8575 75.525V76.3465C54.8575 76.3598 54.8709 76.373 54.8844 76.373H56.5688C56.5823 76.373 56.5958 76.373 56.6092 76.3863C56.6227 76.3995 56.6227 76.4128 56.6227 76.426V76.9163C56.6227 76.9295 56.6227 76.9428 56.6092 76.956C56.5958 76.9693 56.5823 76.9693 56.5688 76.9693H54.1972C54.1837 76.9693 54.1702 76.9693 54.1567 76.956C54.1433 76.9428 54.1433 76.9295 54.1433 76.9163V73.511C54.1433 73.4978 54.1433 73.4845 54.1567 73.4713C54.1702 73.458 54.1837 73.458 54.1972 73.458H56.5688C56.5823 73.458 56.5958 73.458 56.6092 73.4713C56.6227 73.4845 56.6227 73.4978 56.6227 73.511V74.0013C56.6227 74.0278 56.6227 74.041 56.6092 74.0543Z" fill="#252530"/>
<path d="M60.8 76.9295L60.6518 76.4393C60.6383 76.426 60.6383 76.4128 60.6248 76.4128H59.3717C59.3582 76.4128 59.3582 76.426 59.3447 76.4393L59.1965 76.9295C59.183 76.9693 59.1695 76.9825 59.1291 76.9825H58.4823C58.4553 76.9825 58.4419 76.9825 58.4419 76.9693C58.4284 76.956 58.4284 76.9428 58.4419 76.9163L59.5468 73.511C59.5603 73.4713 59.5738 73.458 59.6142 73.458H60.4227C60.4631 73.458 60.4766 73.4713 60.4901 73.511L61.5951 76.9163V76.9428C61.5951 76.9693 61.5816 76.9825 61.5412 76.9825H60.8943C60.827 76.9825 60.8135 76.9693 60.8 76.9295ZM59.5334 75.8695H60.4362C60.4631 75.8695 60.4631 75.8563 60.4631 75.843L60.005 74.3458C60.005 74.3325 59.9915 74.3325 59.9915 74.3325C59.978 74.3325 59.978 74.3458 59.978 74.3458L59.5334 75.843C59.5199 75.8563 59.5199 75.8695 59.5334 75.8695Z" fill="#252530"/>
<path d="M62.3632 76.9295L61.4603 73.5243V73.4978C61.4603 73.4713 61.4738 73.458 61.5142 73.458H62.1476C62.188 73.458 62.2015 73.4713 62.2149 73.511L62.7 75.5648C62.7 75.578 62.7135 75.5913 62.7135 75.5913C62.7135 75.5913 62.727 75.578 62.727 75.5648L63.1986 73.5243C63.2121 73.4845 63.2256 73.4713 63.266 73.4713H63.8859C63.9263 73.4713 63.9532 73.4845 63.9532 73.5243L64.4653 75.578C64.4653 75.5913 64.4788 75.5913 64.4788 75.5913C64.4922 75.5913 64.4922 75.5913 64.4922 75.578L64.9639 73.5375C64.9773 73.4978 64.9908 73.4845 65.0312 73.4845H65.6376C65.6915 73.4845 65.705 73.511 65.6915 73.5508L64.8561 76.956C64.8426 76.9958 64.8156 77.009 64.7887 77.009H64.1823C64.1419 77.009 64.1284 76.9958 64.1149 76.956L63.5894 74.7698C63.5894 74.7565 63.5759 74.7433 63.5759 74.7433C63.5625 74.7433 63.5625 74.7565 63.5625 74.7698L63.0773 76.9428C63.0639 76.9825 63.0504 76.9958 63.01 76.9958H62.444C62.4036 76.9825 62.3766 76.9693 62.3632 76.9295Z" fill="#252530"/>
<path d="M67.9015 76.9294L67.7532 76.4391C67.7398 76.4259 67.7398 76.4126 67.7263 76.4126H66.4731C66.4596 76.4126 66.4596 76.4259 66.4461 76.4391L66.2979 76.9294C66.2844 76.9691 66.271 76.9824 66.2305 76.9824H65.5837C65.5568 76.9824 65.5433 76.9824 65.5433 76.9691C65.5298 76.9559 65.5298 76.9426 65.5433 76.9161L66.6483 73.5109C66.6618 73.4711 66.6752 73.4579 66.7157 73.4579H67.5242C67.5646 73.4579 67.5781 73.4711 67.5915 73.5109L68.6965 76.9161V76.9426C68.6965 76.9691 68.683 76.9824 68.6426 76.9824H67.9958C67.9284 76.9824 67.9149 76.9691 67.9015 76.9294ZM66.6348 75.8694H67.5376C67.5646 75.8694 67.5646 75.8561 67.5646 75.8429L67.1064 74.3456C67.1064 74.3324 67.093 74.3324 67.093 74.3324C67.0795 74.3324 67.0795 74.3456 67.0795 74.3456L66.6348 75.8429C66.6213 75.8561 66.6213 75.8694 66.6348 75.8694ZM71.1759 76.9426L70.5291 75.5514C70.5157 75.5381 70.5157 75.5249 70.5022 75.5249H70.0305C70.0171 75.5249 70.0036 75.5381 70.0036 75.5514V76.9294C70.0036 76.9426 70.0036 76.9559 69.9901 76.9691C69.9766 76.9824 69.9632 76.9824 69.9497 76.9824H69.3568C69.3433 76.9824 69.3298 76.9824 69.3164 76.9691C69.3029 76.9559 69.3029 76.9426 69.3029 76.9294V73.5241C69.3029 73.5109 69.3029 73.4976 69.3164 73.4844C69.3298 73.4711 69.3433 73.4711 69.3568 73.4711H70.8256C71.0412 73.4711 71.2298 73.5109 71.405 73.6036C71.5667 73.6964 71.7015 73.8156 71.7823 73.9746C71.8766 74.1336 71.9171 74.3191 71.9171 74.5311C71.9171 74.7564 71.8632 74.9551 71.7419 75.1141C71.6206 75.2731 71.4589 75.3924 71.2568 75.4586C71.2433 75.4719 71.2298 75.4719 71.2433 75.4984L71.944 76.9294C71.9575 76.9426 71.9575 76.9559 71.9575 76.9559C71.9575 76.9824 71.944 76.9956 71.9036 76.9956H71.2703C71.2029 76.9824 71.1894 76.9691 71.1759 76.9426ZM70.0036 74.0939V74.9551C70.0036 74.9684 70.0171 74.9816 70.0305 74.9816H70.7043C70.8525 74.9816 70.9603 74.9419 71.0547 74.8491C71.149 74.7696 71.1894 74.6504 71.1894 74.5179C71.1894 74.3854 71.149 74.2794 71.0547 74.1866C70.9603 74.1071 70.8525 74.0541 70.7043 74.0541H70.0305C70.0036 74.0674 70.0036 74.0806 70.0036 74.0939ZM72.5908 76.9691C72.5774 76.9559 72.5774 76.9426 72.5774 76.9294V73.5241C72.5774 73.5109 72.5774 73.4976 72.5908 73.4844C72.6043 73.4711 72.6178 73.4711 72.6313 73.4711H73.9114C74.1674 73.4711 74.3965 73.5109 74.5852 73.6036C74.7738 73.6964 74.922 73.8156 75.0298 73.9746C75.1376 74.1336 75.1915 74.3191 75.1915 74.5311V75.9224C75.1915 76.1344 75.1376 76.3199 75.0298 76.4789C74.922 76.6379 74.7738 76.7704 74.5852 76.8499C74.3965 76.9426 74.1674 76.9824 73.9114 76.9824H72.6313C72.6178 76.9824 72.6043 76.9824 72.5908 76.9691ZM73.3185 76.3729H73.9383C74.1001 76.3729 74.2213 76.3199 74.3157 76.2139C74.41 76.1079 74.4639 75.9754 74.4639 75.7899V74.6371C74.4639 74.4649 74.41 74.3191 74.3157 74.2131C74.2213 74.1071 74.0866 74.0541 73.9249 74.0541H73.305C73.2915 74.0541 73.2781 74.0674 73.2781 74.0806V76.3331C73.2915 76.3729 73.305 76.3729 73.3185 76.3729ZM76.4043 76.9029C76.2022 76.8234 76.0405 76.6909 75.9327 76.5319C75.8249 76.3729 75.771 76.1874 75.771 75.9754V75.8694C75.771 75.8561 75.771 75.8429 75.7844 75.8296C75.7979 75.8164 75.8114 75.8164 75.8249 75.8164H76.4043C76.4178 75.8164 76.4313 75.8164 76.4447 75.8296C76.4582 75.8429 76.4582 75.8561 76.4582 75.8694V75.9489C76.4582 76.0814 76.5256 76.2006 76.6469 76.2934C76.7681 76.3861 76.9433 76.4259 77.1589 76.4259C77.3341 76.4259 77.4688 76.3861 77.5632 76.3066C77.6575 76.2271 77.6979 76.1344 77.6979 76.0284C77.6979 75.9489 77.671 75.8826 77.6171 75.8296C77.5632 75.7766 77.4823 75.7236 77.388 75.6839C77.2937 75.6441 77.1454 75.5779 76.9433 75.5116C76.7142 75.4321 76.5256 75.3526 76.3639 75.2731C76.2022 75.1936 76.0674 75.0876 75.9596 74.9419C75.8518 74.7961 75.7979 74.6371 75.7979 74.4251C75.7979 74.2264 75.8518 74.0409 75.9596 73.8951C76.0674 73.7494 76.2157 73.6301 76.4043 73.5506C76.593 73.4711 76.8086 73.4314 77.0511 73.4314C77.3071 73.4314 77.5362 73.4711 77.7383 73.5639C77.9405 73.6566 78.1022 73.7759 78.21 73.9481C78.3178 74.1071 78.3852 74.3059 78.3852 74.5179V74.5974C78.3852 74.6106 78.3852 74.6239 78.3717 74.6371C78.3582 74.6504 78.3447 74.6504 78.3313 74.6504H77.7518C77.7383 74.6504 77.7249 74.6504 77.7114 74.6371C77.6979 74.6239 77.6979 74.6106 77.6979 74.5974V74.5576C77.6979 74.4119 77.644 74.2926 77.5227 74.1999C77.4015 74.1071 77.2398 74.0541 77.0376 74.0541C76.8759 74.0541 76.7547 74.0939 76.6603 74.1601C76.566 74.2264 76.5256 74.3191 76.5256 74.4384C76.5256 74.5179 76.5525 74.5974 76.6064 74.6504C76.6603 74.7034 76.7412 74.7564 76.8355 74.8094C76.9433 74.8491 77.105 74.9154 77.3206 74.9949C77.5632 75.0876 77.7518 75.1539 77.8866 75.2201C78.0213 75.2864 78.1561 75.3924 78.2639 75.5249C78.3717 75.6574 78.4256 75.8296 78.4256 76.0416C78.4256 76.3596 78.3043 76.6114 78.0752 76.7836C77.8462 76.9559 77.5227 77.0619 77.1185 77.0619C76.849 77.0221 76.6064 76.9824 76.4043 76.9029Z" fill="#252530"/>
<path d="M37.8922 87.9933C37.9057 88.0065 37.9192 88.0198 37.9327 88.0198H40.7355C40.7759 88.0198 40.8029 88.033 40.8298 88.0595C40.8568 88.086 40.8702 88.1126 40.8702 88.1523V89.1328C40.8702 89.1726 40.8568 89.1991 40.8298 89.2256C40.8029 89.2521 40.7759 89.2653 40.7355 89.2653H36.0866C36.0461 89.2653 36.0192 89.2521 35.9922 89.2256C35.9653 89.1991 35.9518 89.1726 35.9518 89.1328V88.2053C35.9518 88.1391 35.9788 88.0993 36.0192 88.0595C36.3561 87.7283 36.7064 87.3838 37.0568 86.9995C37.4071 86.6153 37.6227 86.3768 37.717 86.2841C37.9057 86.0588 38.1078 85.8468 38.31 85.6481C38.9298 84.9591 39.2532 84.4556 39.2532 84.1243C39.2532 83.8858 39.1724 83.6871 38.9972 83.5413C38.822 83.3956 38.6064 83.3161 38.3234 83.3161C38.0539 83.3161 37.8249 83.3956 37.6497 83.5413C37.4745 83.6871 37.3936 83.8991 37.3936 84.1508V84.4026C37.3936 84.4423 37.3802 84.4688 37.3532 84.4953C37.3263 84.5218 37.2993 84.5351 37.2589 84.5351H36.0461C36.0057 84.5351 35.9788 84.5218 35.9518 84.4953C35.9249 84.4688 35.9114 84.4423 35.9114 84.4026V83.9256C35.9383 83.5546 36.0461 83.2366 36.2617 82.9583C36.4773 82.6801 36.7603 82.4681 37.1107 82.3091C37.461 82.1633 37.8653 82.0838 38.2965 82.0838C38.7816 82.0838 39.2128 82.1766 39.5766 82.3488C39.9405 82.5343 40.21 82.7728 40.4121 83.0776C40.6142 83.3823 40.7085 83.7268 40.7085 84.0978C40.7085 84.3761 40.6412 84.6676 40.4929 84.9723C40.3447 85.2638 40.1291 85.595 39.8461 85.9395C39.6305 86.2045 39.4014 86.4696 39.1589 86.7213C38.9163 86.9731 38.539 87.3441 38.0539 87.8343L37.9057 87.9801C37.8922 87.9668 37.8922 87.98 37.8922 87.9933ZM42.4199 88.7353C41.9752 88.3246 41.7596 87.7548 41.7596 87.0393V84.3628C41.7596 83.6606 41.9752 83.1041 42.4199 82.6933C42.8646 82.2826 43.4575 82.0706 44.2121 82.0706C44.9667 82.0706 45.5731 82.2826 46.0178 82.6933C46.4624 83.1041 46.678 83.6606 46.678 84.3628V87.0393C46.678 87.7548 46.4624 88.3246 46.0178 88.7353C45.5731 89.1461 44.9802 89.3581 44.2121 89.3581C43.4575 89.3581 42.8511 89.1461 42.4199 88.7353ZM44.9532 87.8476C45.1419 87.6621 45.2227 87.4103 45.2227 87.1056V84.3098C45.2227 84.0051 45.1284 83.7533 44.9532 83.5678C44.7646 83.3823 44.522 83.2896 44.2121 83.2896C43.9156 83.2896 43.6731 83.3823 43.4844 83.5678C43.2958 83.7533 43.2149 84.0051 43.2149 84.3098V87.1056C43.2149 87.4103 43.3093 87.6621 43.4844 87.8476C43.6731 88.0331 43.9156 88.1258 44.2121 88.1258C44.522 88.1258 44.7646 88.0331 44.9532 87.8476ZM49.5617 87.9933C49.5752 88.0065 49.5887 88.0198 49.6022 88.0198H52.405C52.4454 88.0198 52.4724 88.033 52.4993 88.0595C52.5263 88.086 52.5397 88.1126 52.5397 88.1523V89.1328C52.5397 89.1726 52.5263 89.1991 52.4993 89.2256C52.4724 89.2521 52.4454 89.2653 52.405 89.2653H47.7561C47.7156 89.2653 47.6887 89.2521 47.6617 89.2256C47.6348 89.1991 47.6213 89.1726 47.6213 89.1328V88.2053C47.6213 88.1391 47.6483 88.0993 47.6887 88.0595C48.0256 87.7283 48.3759 87.3838 48.7263 86.9995C49.0766 86.6153 49.2922 86.3768 49.3866 86.2841C49.5752 86.0588 49.7773 85.8468 49.9795 85.6481C50.5993 84.9591 50.9227 84.4556 50.9227 84.1243C50.9227 83.8858 50.8419 83.6871 50.6667 83.5413C50.4915 83.3956 50.2759 83.3161 49.9929 83.3161C49.7234 83.3161 49.4944 83.3956 49.3192 83.5413C49.144 83.6871 49.0632 83.8991 49.0632 84.1508V84.4026C49.0632 84.4423 49.0497 84.4688 49.0227 84.4953C48.9958 84.5218 48.9688 84.5351 48.9284 84.5351H47.7156C47.6752 84.5351 47.6483 84.5218 47.6213 84.4953C47.5944 84.4688 47.5809 84.4423 47.5809 84.4026V83.9256C47.6078 83.5546 47.7156 83.2366 47.9312 82.9583C48.1468 82.6801 48.4298 82.4681 48.7802 82.3091C49.1305 82.1633 49.5348 82.0838 49.966 82.0838C50.4511 82.0838 50.8823 82.1766 51.2461 82.3488C51.61 82.5343 51.8795 82.7728 52.0816 83.0776C52.2837 83.3823 52.378 83.7268 52.378 84.0978C52.378 84.3761 52.3107 84.6676 52.1624 84.9723C52.0142 85.2638 51.7986 85.595 51.5156 85.9395C51.3 86.2045 51.071 86.4696 50.8284 86.7213C50.5858 86.9731 50.2085 87.3441 49.7234 87.8343L49.5752 87.9801C49.5483 87.9668 49.5483 87.98 49.5617 87.9933ZM58.6575 86.1781C58.6844 86.2046 58.6979 86.231 58.6979 86.2708V87.2911C58.6979 87.3308 58.6844 87.3573 58.6575 87.3838C58.6305 87.4103 58.6036 87.4236 58.5631 87.4236H58.1185C58.078 87.4236 58.0646 87.4368 58.0646 87.4766V89.1328C58.0646 89.1726 58.0511 89.1991 58.0241 89.2256C57.9972 89.2521 57.9702 89.2653 57.9298 89.2653H56.717C56.6766 89.2653 56.6497 89.2521 56.6227 89.2256C56.5958 89.1991 56.5823 89.1726 56.5823 89.1328V87.4766C56.5823 87.4368 56.5688 87.4236 56.5284 87.4236H53.3617C53.3213 87.4236 53.2944 87.4103 53.2674 87.3838C53.2405 87.3573 53.227 87.3308 53.227 87.2911V86.4828C53.227 86.4431 53.2405 86.39 53.2539 86.337L55.1135 82.2428C55.1405 82.1766 55.1944 82.1501 55.2617 82.1501H56.5553C56.6092 82.1501 56.6362 82.1633 56.6497 82.1898C56.6631 82.2163 56.6631 82.2428 56.6497 82.2958L54.9788 86.0853C54.9653 86.0986 54.9653 86.1118 54.9788 86.1251C54.9922 86.1383 54.9922 86.1516 55.0057 86.1516H56.5688C56.6092 86.1516 56.6227 86.1383 56.6227 86.0986V84.8398C56.6227 84.8001 56.6362 84.7736 56.6631 84.7471C56.6901 84.7206 56.7171 84.7073 56.7575 84.7073H57.9702C58.0107 84.7073 58.0376 84.7206 58.0646 84.7471C58.0915 84.7736 58.105 84.8001 58.105 84.8398V86.0986C58.105 86.1383 58.1185 86.1516 58.1589 86.1516H58.6036C58.6036 86.1516 58.644 86.1648 58.6575 86.1781Z" fill="#252530"/>
<path d="M19.2829 61.9571C18.9326 61.8114 18.6496 61.5994 18.461 61.3211C18.2723 61.0429 18.178 60.7249 18.178 60.3539V60.1551C18.178 60.1286 18.1915 60.1021 18.2049 60.0756C18.2319 60.0491 18.2454 60.0491 18.2858 60.0491H19.2964C19.3234 60.0491 19.3503 60.0624 19.3773 60.0756C19.4042 60.1021 19.4042 60.1154 19.4042 60.1551V60.2876C19.4042 60.5261 19.512 60.7116 19.7276 60.8839C19.9432 61.0429 20.2397 61.1224 20.617 61.1224C20.9269 61.1224 21.1695 61.0561 21.3177 60.9236C21.4659 60.7911 21.5468 60.6321 21.5468 60.4334C21.5468 60.2876 21.4929 60.1816 21.3985 60.0756C21.3042 59.9829 21.1695 59.8901 21.0078 59.8239C20.8461 59.7576 20.59 59.6516 20.2262 59.5191C19.8354 59.3866 19.4985 59.2541 19.2156 59.1084C18.9461 58.9626 18.7035 58.7771 18.5283 58.5386C18.3397 58.3001 18.2454 57.9954 18.2454 57.6376C18.2454 57.2931 18.3397 56.9751 18.5149 56.7234C18.7035 56.4584 18.9595 56.2596 19.2829 56.1139C19.6063 55.9681 19.9837 55.9019 20.4149 55.9019C20.8595 55.9019 21.2638 55.9814 21.6141 56.1404C21.9645 56.2994 22.2475 56.5114 22.4361 56.8029C22.6383 57.0811 22.7326 57.4124 22.7326 57.7834V57.9159C22.7326 57.9424 22.7191 57.9689 22.7056 57.9954C22.6787 58.0219 22.6652 58.0219 22.6248 58.0219H21.6007C21.5737 58.0219 21.5468 58.0086 21.5198 57.9954C21.4929 57.9689 21.4929 57.9556 21.4929 57.9159V57.8496C21.4929 57.6111 21.3851 57.3991 21.1829 57.2269C20.9808 57.0546 20.6978 56.9751 20.3475 56.9751C20.0645 56.9751 19.8489 57.0281 19.6872 57.1474C19.5255 57.2666 19.4581 57.4256 19.4581 57.6244C19.4581 57.7701 19.4985 57.8894 19.5929 57.9954C19.6872 58.0881 19.822 58.1809 19.9971 58.2604C20.1723 58.3399 20.4553 58.4459 20.8326 58.5784C21.2503 58.7241 21.5872 58.8699 21.8298 58.9759C22.0723 59.0951 22.2879 59.2674 22.4766 59.4926C22.6652 59.7179 22.7595 60.0226 22.7595 60.3936C22.7595 60.9369 22.5574 61.3741 22.1397 61.6921C21.7354 62.0101 21.1695 62.1691 20.4822 62.1691C20.051 62.1691 19.6333 62.1029 19.2829 61.9571Z" fill="white"/>
<path d="M26.3844 57.7434C26.6809 57.8759 26.9235 58.0482 27.0852 58.2867C27.2603 58.5119 27.3412 58.7637 27.3412 59.0419V62.0099C27.3412 62.0364 27.3277 62.0629 27.3142 62.0894C27.2873 62.1159 27.2738 62.1159 27.2334 62.1159H26.1958C26.1688 62.1159 26.1419 62.1027 26.1149 62.0894C26.088 62.0629 26.088 62.0497 26.088 62.0099V61.7184C26.088 61.7052 26.088 61.6919 26.0745 61.6787C26.061 61.6787 26.0476 61.6787 26.0341 61.6919C25.7915 62.0099 25.3873 62.1689 24.8348 62.1689C24.3766 62.1689 23.9993 62.0629 23.7164 61.8377C23.4334 61.6124 23.2852 61.2944 23.2852 60.8572C23.2852 60.4067 23.4469 60.0622 23.7703 59.8104C24.0937 59.5587 24.5518 59.4394 25.1447 59.4394H26.0476C26.0745 59.4394 26.088 59.4262 26.088 59.3997V59.2009C26.088 59.0022 26.0341 58.8564 25.9128 58.7504C25.7915 58.6444 25.6164 58.5914 25.3738 58.5914C25.1852 58.5914 25.0369 58.6179 24.9157 58.6842C24.7944 58.7504 24.7135 58.8432 24.6866 58.9492C24.6731 59.0154 24.6327 59.0419 24.5653 59.0419L23.4873 58.8962C23.4199 58.8829 23.3795 58.8564 23.393 58.8167C23.4199 58.5782 23.5142 58.3529 23.6894 58.1542C23.8646 57.9554 24.0937 57.7964 24.3766 57.6904C24.6596 57.5844 24.983 57.5182 25.3469 57.5182C25.7376 57.5447 26.0745 57.6109 26.3844 57.7434ZM25.8185 61.0559C25.9937 60.9234 26.088 60.7512 26.088 60.5392V60.2212C26.088 60.1947 26.0745 60.1814 26.0476 60.1814H25.4008C25.1313 60.1814 24.9291 60.2344 24.7674 60.3272C24.6192 60.4199 24.5383 60.5657 24.5383 60.7512C24.5383 60.9102 24.5922 61.0294 24.7135 61.1222C24.8213 61.2149 24.983 61.2547 25.1717 61.2547C25.4277 61.2547 25.6433 61.1884 25.8185 61.0559ZM28.2575 62.0762C28.2305 62.0497 28.2305 62.0364 28.2305 61.9967V56.0872C28.2305 56.0607 28.244 56.0342 28.2575 56.0077C28.2844 55.9812 28.2979 55.9812 28.3383 55.9812H29.3759C29.4029 55.9812 29.4298 55.9944 29.4568 56.0077C29.4837 56.0342 29.4837 56.0474 29.4837 56.0872V61.9967C29.4837 62.0232 29.4703 62.0497 29.4568 62.0762C29.4298 62.1027 29.4164 62.1027 29.3759 62.1027H28.3383C28.2979 62.1027 28.271 62.0894 28.2575 62.0762ZM34.4696 60.1417C34.4696 60.2079 34.4291 60.2477 34.3483 60.2477H31.5993C31.5589 60.2477 31.5454 60.2609 31.5589 60.2874C31.5724 60.4067 31.6128 60.5259 31.6532 60.6319C31.8015 60.9632 32.1249 61.1222 32.5965 61.1222C32.9738 61.1222 33.2703 60.9632 33.4993 60.6717C33.5263 60.6319 33.5532 60.6187 33.5802 60.6187C33.5937 60.6187 33.6206 60.6319 33.6476 60.6584L34.2944 61.2812C34.3213 61.3077 34.3348 61.3342 34.3348 61.3607C34.3348 61.3739 34.3213 61.4004 34.2944 61.4269C34.0922 61.6654 33.8497 61.8509 33.5398 61.9834C33.2298 62.1159 32.893 62.1822 32.5291 62.1822C32.0171 62.1822 31.5859 62.0629 31.2355 61.8377C30.8852 61.6124 30.6291 61.2944 30.4809 60.8837C30.3596 60.5922 30.2922 60.2079 30.2922 59.7442C30.2922 59.4262 30.3327 59.1347 30.427 58.8962C30.5618 58.4854 30.8043 58.1542 31.1412 57.9024C31.4781 57.6639 31.8823 57.5314 32.354 57.5314C32.9469 57.5314 33.4185 57.7037 33.7823 58.0349C34.1461 58.3794 34.3618 58.8299 34.4426 59.3864C34.4696 59.6117 34.483 59.8634 34.4696 60.1417ZM31.6263 59.1082C31.5993 59.1877 31.5859 59.2804 31.5589 59.3864C31.5589 59.4129 31.5724 59.4262 31.5993 59.4262H33.149C33.1894 59.4262 33.2029 59.4129 33.1894 59.3864C33.1625 59.2142 33.149 59.1347 33.149 59.1479C33.0951 58.9757 33.0008 58.8432 32.866 58.7372C32.7313 58.6444 32.5696 58.5914 32.3674 58.5914C31.9901 58.6047 31.7476 58.7769 31.6263 59.1082ZM35.9653 61.9967C35.6688 61.8907 35.4398 61.7317 35.2781 61.5329C35.1164 61.3342 35.0355 61.1089 35.0355 60.8572V60.7644C35.0355 60.7379 35.049 60.7114 35.0625 60.6849C35.0894 60.6584 35.1029 60.6584 35.1433 60.6584H36.127C36.154 60.6584 36.1809 60.6717 36.2079 60.6849C36.2348 60.7114 36.2348 60.7247 36.2348 60.7644V60.7777C36.2348 60.9102 36.3022 61.0162 36.4504 61.1089C36.5986 61.2017 36.7738 61.2414 37.0029 61.2414C37.205 61.2414 37.3667 61.2017 37.488 61.1222C37.6093 61.0427 37.6766 60.9499 37.6766 60.8307C37.6766 60.7247 37.6227 60.6452 37.5149 60.5922C37.4071 60.5392 37.232 60.4862 36.9894 60.4199C36.7064 60.3537 36.4908 60.2874 36.3291 60.2212C35.9518 60.0887 35.6419 59.9297 35.4263 59.7442C35.1972 59.5587 35.0894 59.2937 35.0894 58.9359C35.0894 58.4987 35.2646 58.1674 35.6015 57.9024C35.9383 57.6507 36.3965 57.5182 36.9625 57.5182C37.3398 57.5182 37.6766 57.5844 37.9596 57.7037C38.2426 57.8229 38.4717 57.9952 38.6199 58.2072C38.7816 58.4192 38.849 58.6709 38.849 58.9359C38.849 58.9624 38.8355 58.9889 38.822 59.0154C38.7951 59.0419 38.7816 59.0419 38.7412 59.0419H37.7844C37.7575 59.0419 37.7305 59.0287 37.7036 59.0154C37.6766 58.9889 37.6766 58.9757 37.6766 58.9359C37.6766 58.8034 37.6093 58.6974 37.4745 58.6179C37.3398 58.5252 37.1646 58.4854 36.949 58.4854C36.7469 58.4854 36.5986 58.5252 36.4639 58.5914C36.3291 58.6577 36.2752 58.7637 36.2752 58.8829C36.2752 59.0022 36.3426 59.0817 36.4639 59.1479C36.5852 59.2009 36.7873 59.2672 37.0703 59.3334C37.1376 59.3467 37.205 59.3732 37.2859 59.3864C37.3667 59.4129 37.461 59.4262 37.5554 59.4659C37.9731 59.5852 38.31 59.7442 38.5525 59.9429C38.7951 60.1417 38.9164 60.4199 38.9164 60.7777C38.9164 61.2149 38.7412 61.5462 38.3908 61.7847C38.0405 62.0232 37.5823 62.1424 36.9894 62.1424C36.6121 62.1689 36.2618 62.1159 35.9653 61.9967ZM45.1149 56.2064C45.4114 56.3654 45.6405 56.5907 45.8022 56.8689C45.9639 57.1604 46.0447 57.4917 46.0447 57.8627C46.0447 58.2337 45.9639 58.5517 45.7887 58.8299C45.6135 59.1082 45.3844 59.3334 45.0745 59.4792C44.7646 59.6382 44.4142 59.7044 44.0235 59.7044H42.7568C42.7298 59.7044 42.7164 59.7177 42.7164 59.7442V61.9702C42.7164 61.9967 42.7029 62.0232 42.6894 62.0497C42.6625 62.0762 42.649 62.0762 42.6086 62.0762H41.571C41.544 62.0762 41.5171 62.0629 41.4901 62.0497C41.4632 62.0232 41.4632 62.0099 41.4632 61.9702V56.0474C41.4632 56.0209 41.4766 55.9944 41.4901 55.9679C41.5171 55.9414 41.5305 55.9414 41.571 55.9414H44.0774C44.4681 55.9812 44.8185 56.0474 45.1149 56.2064ZM44.549 58.5119C44.7107 58.3529 44.7915 58.1542 44.7915 57.9024C44.7915 57.6507 44.7107 57.4387 44.549 57.2797C44.3873 57.1207 44.1582 57.0412 43.8887 57.0412H42.7568C42.7298 57.0412 42.7164 57.0544 42.7164 57.0809V58.6974C42.7164 58.7239 42.7298 58.7372 42.7568 58.7372H43.8887C44.1582 58.7372 44.3873 58.6577 44.549 58.5119Z" fill="white"/>
<path d="M49.6425 57.6772C49.6964 57.7037 49.7099 57.7434 49.6964 57.8097L49.5078 58.8034C49.5078 58.8697 49.4539 58.8962 49.3865 58.8697C49.2922 58.8432 49.1978 58.8299 49.0766 58.8299C49.0227 58.8299 48.9688 58.8299 48.8744 58.8432C48.6588 58.8564 48.4836 58.9359 48.3354 59.0684C48.1872 59.2009 48.1063 59.3864 48.1063 59.6117V61.9967C48.1063 62.0232 48.0929 62.0497 48.0794 62.0762C48.0524 62.1027 48.039 62.1027 47.9985 62.1027H46.9609C46.934 62.1027 46.907 62.0894 46.8801 62.0762C46.8531 62.0497 46.8531 62.0364 46.8531 61.9967V57.7169C46.8531 57.6904 46.8666 57.6639 46.8801 57.6374C46.907 57.6109 46.9205 57.6109 46.9609 57.6109H47.9985C48.0255 57.6109 48.0524 57.6242 48.0794 57.6374C48.1063 57.6639 48.1063 57.6772 48.1063 57.7169V58.0482C48.1063 58.0614 48.1063 58.0747 48.1198 58.0879C48.1333 58.0879 48.1468 58.0879 48.1468 58.0747C48.3893 57.7302 48.7127 57.5447 49.1305 57.5447C49.3461 57.5447 49.5212 57.5844 49.6425 57.6772Z" fill="white"/>
<path d="M50.8957 61.7846C50.5453 61.5329 50.3028 61.1751 50.168 60.7379C50.0872 60.4596 50.0468 60.1681 50.0468 59.8501C50.0468 59.5056 50.0872 59.2009 50.168 58.9226C50.3028 58.4854 50.5453 58.1541 50.9092 57.9024C51.2595 57.6639 51.6907 57.5314 52.1893 57.5314C52.6744 57.5314 53.0921 57.6506 53.429 57.8891C53.7794 58.1276 54.0219 58.4721 54.1567 58.8961C54.251 59.1876 54.3049 59.4924 54.3049 59.8104C54.3049 60.1284 54.2645 60.4199 54.1836 60.6981C54.0489 61.1486 53.8063 61.5064 53.456 61.7714C53.1056 62.0364 52.6744 62.1556 52.1758 62.1556C51.6773 62.1689 51.246 62.0496 50.8957 61.7846ZM52.6609 60.9366C52.7957 60.8174 52.89 60.6584 52.9574 60.4596C53.0113 60.2741 53.0248 60.0754 53.0248 59.8501C53.0248 59.6116 52.9978 59.3996 52.9574 59.2274C52.89 59.0286 52.7957 58.8696 52.6609 58.7636C52.5262 58.6576 52.3645 58.5914 52.1624 58.5914C51.9602 58.5914 51.7985 58.6444 51.6638 58.7636C51.529 58.8696 51.4347 59.0286 51.3808 59.2274C51.3269 59.3731 51.3134 59.5719 51.3134 59.8501C51.3134 60.1151 51.3404 60.3139 51.3808 60.4596C51.4347 60.6584 51.5425 60.8306 51.6773 60.9366C51.812 61.0559 51.9872 61.1089 52.1893 61.1089C52.3645 61.1221 52.5262 61.0559 52.6609 60.9366ZM57.9702 56.0209C57.9971 55.9944 58.0106 55.9944 58.051 55.9944H59.0886C59.1155 55.9944 59.1425 56.0076 59.1694 56.0209C59.1964 56.0474 59.1964 56.0606 59.1964 56.1004V62.0099C59.1964 62.0364 59.1829 62.0629 59.1694 62.0894C59.1425 62.1159 59.129 62.1159 59.0886 62.1159H58.051C58.0241 62.1159 57.9971 62.1026 57.9702 62.0894C57.9432 62.0629 57.9432 62.0496 57.9432 62.0099V61.7184C57.9432 61.7051 57.9432 61.6919 57.9297 61.6919C57.9163 61.6919 57.9028 61.6919 57.8893 61.7051C57.6468 62.0231 57.2964 62.1821 56.8652 62.1821C56.4475 62.1821 56.0971 62.0629 55.7872 61.8376C55.4772 61.6124 55.2751 61.2944 55.1404 60.8969C55.046 60.5921 54.9921 60.2476 54.9921 59.8369C54.9921 59.4261 55.046 59.0551 55.1538 58.7504C55.2886 58.3794 55.5042 58.0879 55.8007 57.8626C56.0971 57.6374 56.4609 57.5314 56.8921 57.5314C57.3234 57.5314 57.6468 57.6771 57.8893 57.9686C57.9028 57.9819 57.9163 57.9951 57.9297 57.9819C57.9432 57.9819 57.9432 57.9686 57.9432 57.9421V56.0739C57.9432 56.0606 57.9567 56.0341 57.9702 56.0209ZM57.9297 59.8634C57.9297 59.4791 57.8624 59.1611 57.7276 58.9491C57.5929 58.7239 57.3907 58.6046 57.1347 58.6046C56.8517 58.6046 56.6496 58.7239 56.5014 58.9491C56.3531 59.1744 56.2723 59.4791 56.2723 59.8766C56.2723 60.2211 56.3397 60.5126 56.4609 60.7511C56.6092 61.0029 56.8248 61.1221 57.1212 61.1221C57.3907 61.1221 57.5929 61.0029 57.7411 60.7511C57.8758 60.5259 57.9297 60.2344 57.9297 59.8634ZM62.8347 57.6374C62.8616 57.6109 62.8751 57.6109 62.9155 57.6109H63.9531C63.9801 57.6109 64.007 57.6241 64.034 57.6374C64.0609 57.6639 64.0609 57.6771 64.0609 57.7169V61.9966C64.0609 62.0231 64.0475 62.0496 64.034 62.0761C64.007 62.1026 63.9936 62.1026 63.9531 62.1026H62.9155C62.8886 62.1026 62.8616 62.0894 62.8347 62.0761C62.8077 62.0496 62.8077 62.0364 62.8077 61.9966V61.7051C62.8077 61.6919 62.8077 61.6786 62.7943 61.6786C62.7808 61.6786 62.7673 61.6786 62.7538 61.7051C62.5113 62.0231 62.1475 62.1821 61.6489 62.1821C61.2042 62.1821 60.8269 62.0496 60.5439 61.7846C60.2475 61.5196 60.1127 61.1354 60.1127 60.6584V57.7434C60.1127 57.7169 60.1262 57.6904 60.1397 57.6639C60.1666 57.6374 60.1801 57.6374 60.2205 57.6374H61.2581C61.2851 57.6374 61.312 57.6506 61.339 57.6639C61.3659 57.6904 61.3659 57.7036 61.3659 57.7434V60.3536C61.3659 60.5921 61.4333 60.7776 61.5546 60.9234C61.6758 61.0691 61.8645 61.1486 62.0801 61.1486C62.2822 61.1486 62.4439 61.0824 62.5787 60.9631C62.7134 60.8439 62.7943 60.6849 62.8212 60.4994V57.7434C62.8077 57.6904 62.8212 57.6639 62.8347 57.6374ZM65.7588 61.8244C65.4085 61.5859 65.1659 61.2679 65.0177 60.8571C64.9233 60.5656 64.8694 60.2211 64.8694 59.8236C64.8694 59.4394 64.9233 59.0949 65.0177 58.8034C65.1659 58.4059 65.4085 58.1011 65.7588 57.8626C66.1092 57.6374 66.5269 57.5181 66.9985 57.5181C67.4702 57.5181 67.8879 57.6374 68.2517 57.8626C68.6155 58.1011 68.8446 58.3926 68.9659 58.7504C69.0198 58.8961 69.0333 58.9889 69.0333 59.0684V59.0816C69.0333 59.1346 69.0063 59.1611 68.939 59.1744L67.9148 59.3201H67.9014C67.8475 59.3201 67.807 59.2936 67.7936 59.2274L67.7666 59.0816C67.7262 58.9359 67.6319 58.8034 67.4971 58.7106C67.3489 58.6179 67.1872 58.5649 66.9851 58.5649C66.7964 58.5649 66.6347 58.6179 66.4999 58.7106C66.3652 58.8034 66.2709 58.9359 66.2304 59.0949C66.1631 59.2671 66.1361 59.5056 66.1361 59.8104C66.1361 60.1151 66.1631 60.3536 66.2304 60.5259C66.2843 60.6981 66.3787 60.8439 66.5134 60.9366C66.6482 61.0294 66.8099 61.0824 66.9985 61.0824C67.1872 61.0824 67.3489 61.0294 67.4836 60.9366C67.6184 60.8439 67.7127 60.7114 67.7666 60.5391C67.7666 60.5259 67.7801 60.5126 67.7801 60.4861C67.7801 60.4861 67.7936 60.4729 67.7936 60.4596C67.7936 60.3934 67.8475 60.3669 67.9148 60.3669L68.939 60.5259C68.9929 60.5391 69.0333 60.5656 69.0333 60.6186C69.0333 60.6716 69.0198 60.7511 68.9794 60.8836C68.8581 61.2679 68.6155 61.5859 68.2517 61.7979C67.8879 62.0231 67.4836 62.1291 67.012 62.1291C66.5269 62.1689 66.1092 62.0629 65.7588 61.8244ZM72.3482 58.5649C72.3212 58.5914 72.3077 58.5914 72.2673 58.5914H71.4184C71.3914 58.5914 71.378 58.6046 71.378 58.6311V60.4861C71.378 60.6849 71.4184 60.8174 71.4992 60.9101C71.5801 61.0029 71.7148 61.0559 71.89 61.0559H72.1865C72.2134 61.0559 72.2404 61.0691 72.2673 61.0824C72.2943 61.1089 72.2943 61.1221 72.2943 61.1619V61.9966C72.2943 62.0629 72.2538 62.1026 72.1865 62.1159C71.9439 62.1291 71.7553 62.1291 71.6475 62.1291C71.1489 62.1291 70.7851 62.0496 70.5425 61.8906C70.2999 61.7316 70.1787 61.4269 70.1652 60.9896V58.6444C70.1652 58.6179 70.1517 58.6046 70.1248 58.6046H69.6127C69.5858 58.6046 69.5588 58.5914 69.5319 58.5781C69.5049 58.5516 69.5049 58.5384 69.5049 58.4986V57.7169C69.5049 57.6904 69.5184 57.6639 69.5319 57.6374C69.5588 57.6109 69.5723 57.6109 69.6127 57.6109H70.1248C70.1517 57.6109 70.1652 57.5976 70.1652 57.5711V56.5244C70.1652 56.4979 70.1787 56.4714 70.1921 56.4449C70.2191 56.4184 70.2326 56.4184 70.273 56.4184H71.2702C71.2971 56.4184 71.3241 56.4316 71.351 56.4449C71.378 56.4714 71.378 56.4846 71.378 56.5244V57.5711C71.378 57.5976 71.3914 57.6109 71.4184 57.6109H72.2673C72.2943 57.6109 72.3212 57.6241 72.3482 57.6374C72.3751 57.6639 72.3751 57.6771 72.3751 57.7169V58.4986C72.3886 58.5251 72.3751 58.5516 72.3482 58.5649ZM73.9248 61.9966C73.6283 61.8906 73.3992 61.7316 73.2375 61.5329C73.0758 61.3341 72.995 61.1089 72.995 60.8571V60.7644C72.995 60.7379 73.0085 60.7114 73.0219 60.6849C73.0489 60.6584 73.0624 60.6584 73.1028 60.6584H74.0865C74.1134 60.6584 74.1404 60.6716 74.1673 60.6849C74.1943 60.6981 74.1943 60.7246 74.1943 60.7644V60.7776C74.1943 60.9101 74.2616 61.0161 74.4099 61.1089C74.5581 61.2016 74.7333 61.2414 74.9624 61.2414C75.1645 61.2414 75.3262 61.2016 75.4475 61.1221C75.5687 61.0426 75.6361 60.9499 75.6361 60.8306C75.6361 60.7246 75.5822 60.6451 75.4744 60.5921C75.3666 60.5391 75.1914 60.4861 74.9489 60.4199C74.6659 60.3536 74.4503 60.2874 74.2886 60.2211C73.9113 60.0886 73.6014 59.9296 73.3858 59.7441C73.1567 59.5586 73.0489 59.2936 73.0489 58.9359C73.0489 58.4986 73.2241 58.1674 73.5609 57.9024C73.8978 57.6506 74.356 57.5181 74.9219 57.5181C75.2992 57.5181 75.6361 57.5844 75.9191 57.7036C76.2021 57.8229 76.4311 57.9951 76.5794 58.2071C76.7411 58.4191 76.8085 58.6709 76.8085 58.9359C76.8085 58.9624 76.795 58.9889 76.7815 59.0154C76.768 59.0419 76.7411 59.0419 76.7007 59.0419H75.7439C75.717 59.0419 75.69 59.0286 75.6631 59.0154C75.6361 58.9889 75.6361 58.9756 75.6361 58.9359C75.6361 58.8034 75.5687 58.6974 75.434 58.6179C75.2992 58.5251 75.1241 58.4854 74.9085 58.4854C74.7063 58.4854 74.5581 58.5251 74.4233 58.5914C74.2886 58.6576 74.2347 58.7636 74.2347 58.8829C74.2347 59.0021 74.3021 59.0816 74.4233 59.1479C74.5446 59.2009 74.7468 59.2671 75.0297 59.3334C75.0971 59.3466 75.1645 59.3731 75.2453 59.3864C75.3262 59.4129 75.4205 59.4261 75.5148 59.4659C75.9326 59.5851 76.2694 59.7441 76.512 59.9429C76.7546 60.1416 76.8758 60.4199 76.8758 60.7776C76.8758 61.2149 76.7006 61.5461 76.3503 61.7846C75.9999 62.0231 75.5418 62.1424 74.9489 62.1424C74.5716 62.1689 74.2212 62.1159 73.9248 61.9966Z" fill="white"/>
</g>
<defs>
<clipPath id="clip0_1179_809">
<rect width="95" height="106" fill="white"/>
</clipPath>
</defs>
</svg>
